HIERARCHY
ROOT root
{
	OFFSET 0.000000 0.000000 0.000000
	CHANNELS 6 Xposition Yposition Zposition Zrotation Yrotation Xrotation
	JOINT lhip
	{
		OFFSET 0.058581 -0.082280 -0.017664
		CHANNELS 3 Zrotation Yrotation Xrotation
		JOINT lknee
		{
			OFFSET 0.043451 -0.386469 0.008037
			CHANNELS 3 Zrotation Yrotation Xrotation
			JOINT lankle
			{
				OFFSET -0.014790 -0.426874 -0.037428
				CHANNELS 3 Zrotation Yrotation Xrotation
				JOINT ltoe
				{
					OFFSET 0.041054 -0.060286 0.122042
					CHANNELS 3 Zrotation Yrotation Xrotation
					End Site
					{
						OFFSET 0.000000 0.000000 0.000000
					}
				}
			}
		}
	}
	JOINT rhip
	{
		OFFSET -0.060310 -0.090513 -0.013543
		CHANNELS 3 Zrotation Yrotation Xrotation
		JOINT rknee
		{
			OFFSET -0.043257 -0.383688 -0.004843
			CHANNELS 3 Zrotation Yrotation Xrotation
			JOINT rankle
			{
				OFFSET 0.019056 -0.420046 -0.034562
				CHANNELS 3 Zrotation Yrotation Xrotation
				JOINT rtoe
				{
					OFFSET -0.034840 -0.062106 0.130323
					CHANNELS 3 Zrotation Yrotation Xrotation
					End Site
					{
						OFFSET 0.000000 0.000000 0.000000
					}
				}
			}
		}
	}
	JOINT lowerback
	{
		OFFSET 0.004439 0.124404 -0.038385
		CHANNELS 3 Zrotation Yrotation Xrotation
		JOINT upperback
		{
			OFFSET 0.004488 0.137956 0.026820
			CHANNELS 3 Zrotation Yrotation Xrotation
			JOINT chest
			{
				OFFSET -0.002265 0.056032 0.002855
				CHANNELS 3 Zrotation Yrotation Xrotation
				JOINT lowerneck
				{
					OFFSET -0.013390 0.211636 -0.033468
					CHANNELS 3 Zrotation Yrotation Xrotation
					JOINT upperneck
					{
						OFFSET 0.010113 0.088937 0.050410
						CHANNELS 3 Zrotation Yrotation Xrotation
						End Site
						{
							OFFSET 0.000000 0.000000 0.000000
						}
					}
				}
				JOINT lclavicle
				{
					OFFSET 0.071702 0.114000 -0.018898
					CHANNELS 3 Zrotation Yrotation Xrotation
					JOINT lshoulder
					{
						OFFSET 0.122921 0.045205 -0.019046
						CHANNELS 3 Zrotation Yrotation Xrotation
						JOINT lelbow
						{
							OFFSET 0.255332 -0.015649 -0.022946
							CHANNELS 3 Zrotation Yrotation Xrotation
							JOINT lwrist
							{
								OFFSET 0.265709 0.012698 -0.007375
								CHANNELS 3 Zrotation Yrotation Xrotation
								End Site
								{
									OFFSET 0.000000 0.000000 0.000000
								}
							}
						}
					}
				}
				JOINT rclavicle
				{
					OFFSET -0.082954 0.112472 -0.023707
					CHANNELS 3 Zrotation Yrotation Xrotation
					JOINT rshoulder
					{
						OFFSET -0.113228 0.046853 -0.008472
						CHANNELS 3 Zrotation Yrotation Xrotation
						JOINT relbow
						{
							OFFSET -0.260127 -0.014369 -0.031269
							CHANNELS 3 Zrotation Yrotation Xrotation
							JOINT rwrist
							{
								OFFSET -0.269108 0.006794 -0.006027
								CHANNELS 3 Zrotation Yrotation Xrotation
								End Site
								{
									OFFSET 0.000000 0.000000 0.000000
								}
							}
						}
					}
				}
			}
		}
	}
}
MOTION
Frames: 7
Frame Time: 0.033333
-0.413889 0.505038 1.003360 63.497940 2.697290 92.170984 12.747340 7.172815 -9.015601 -3.647429 -2.302657 10.121692 -1.496043 4.634326 -6.089829 0.000000 -0.000000 0.000000 -0.814393 -1.102466 -17.671767 1.223526 1.594772 15.475621 4.688226 -6.791067 -6.996946 0.000000 -0.000000 0.000000 -1.892603 -2.777003 27.676264 -6.825107 -5.497434 3.310939 -3.692262 -3.669351 -0.322083 -18.467749 3.759400 9.622996 2.073294 14.892203 11.829062 -21.852968 -27.622440 5.324427 -49.179379 -31.382320 13.700152 -5.522137 -33.429900 14.655568 16.845215 -11.480669 -7.245552 -2.772183 16.601603 -3.277567 23.061219 -0.912420 14.025606 176.974318 69.167982 -169.406841 5.266859 20.177135 -50.575475 
-0.414345 0.504909 1.003468 63.603667 2.710973 92.285505 12.754617 7.221847 -9.150112 -3.643160 -2.284036 10.026870 -1.516312 4.546187 -6.000039 0.000000 -0.000000 0.000000 -0.762439 -1.085104 -17.850215 1.162422 1.532002 15.540225 4.669995 -6.790340 -7.010753 0.000000 -0.000000 0.000000 -1.952198 -2.811714 27.708122 -6.774602 -5.470400 3.285010 -3.635856 -3.660588 -0.245371 -18.536818 3.960623 9.570037 2.178103 15.094957 12.043131 -21.785596 -27.449312 5.331059 -49.369817 -31.446496 13.631961 -5.540747 -33.920112 14.759200 16.835813 -11.795995 -7.209470 -2.775466 16.458264 -3.249817 22.908339 -0.813428 13.763531 177.222663 69.121127 -168.963196 5.889400 20.641875 -49.861445 
-0.414594 0.504767 1.003526 63.748592 2.737703 92.416210 12.755960 7.232842 -9.329011 -3.615262 -2.309878 9.974428 -1.482493 4.468741 -5.910845 0.000000 -0.000000 0.000000 -0.719155 -1.090323 -17.971917 1.123981 1.475319 15.507172 4.586342 -6.829516 -6.966140 0.000000 -0.000000 0.000000 -1.954781 -2.844587 27.678171 -6.723301 -5.476948 3.361492 -3.575159 -3.736251 -0.233477 -18.481894 3.818852 9.566440 2.195976 15.145066 12.047203 -21.657730 -27.308932 5.420461 -49.437427 -31.339750 13.538047 -5.291825 -34.724188 14.795264 16.146761 -11.627632 -6.684051 -2.929947 16.441293 -3.309375 22.902071 -0.758897 13.596176 177.624965 69.013300 -168.547007 6.841424 21.041692 -49.315141 
-0.414577 0.504622 1.003592 63.806136 2.716159 92.496588 12.703492 7.167625 -9.321077 -3.563654 -2.320419 9.768485 -1.516373 4.494673 -5.823214 0.000000 -0.000000 0.000000 -0.747795 -1.149015 -18.006828 1.144862 1.466054 15.407362 4.622107 -6.814202 -6.934468 0.000000 -0.000000 0.000000 -1.926492 -2.853806 27.633034 -6.747693 -5.493919 3.392241 -3.592841 -3.696685 -0.141086 -18.527799 3.696471 9.608932 2.125620 15.274083 12.031292 -21.520655 -27.253706 5.208443 -49.468629 -31.269732 13.688814 -5.659485 -34.867215 14.900756 16.387820 -11.579737 -7.305867 -3.038397 16.384405 -3.433393 22.657040 -0.724031 13.720805 176.776088 68.586300 -169.295718 7.402069 20.918364 -48.749199 
-0.414630 0.504202 1.003806 63.717010 2.733684 92.523094 12.747671 7.202656 -9.199252 -3.554318 -2.237720 9.562885 -1.551059 4.464894 -5.726815 0.000000 -0.000000 0.000000 -0.682099 -1.070562 -17.985307 1.071881 1.466036 15.302613 4.666379 -6.779782 -6.880680 0.000000 -0.000000 0.000000 -1.976335 -2.796477 27.604770 -6.777264 -5.386802 3.428423 -3.577627 -3.648478 -0.026615 -18.431248 3.743036 9.517449 2.026796 15.341589 12.265791 -21.512241 -27.181749 5.146063 -49.637745 -31.326973 13.650352 -5.225291 -34.952329 15.094918 16.617562 -12.042113 -5.993411 -3.144734 16.354183 -3.385769 22.626565 -0.836087 13.766527 176.353428 68.142497 -169.486533 6.996378 20.756289 -48.835189 
-0.414611 0.504133 1.003865 63.701286 2.748354 92.561996 12.768941 7.175609 -9.205551 -3.552203 -2.173567 9.519343 -1.513515 4.439062 -5.699651 0.000000 -0.000000 0.000000 -0.669252 -1.103202 -17.943076 1.096615 1.496852 15.152133 4.660664 -6.776097 -6.831796 0.000000 -0.000000 0.000000 -1.955117 -2.740935 27.567537 -6.788188 -5.367379 3.492511 -3.572675 -3.679333 -0.104467 -18.431345 3.679099 9.636115 2.183093 15.405044 12.388449 -21.646417 -27.206228 5.241901 -49.567956 -31.322583 13.472806 -5.084139 -35.067286 14.812535 16.588597 -12.049576 -5.637140 -3.109700 16.380168 -3.266132 22.555077 -0.969171 13.661627 177.087649 68.141712 -168.732315 7.471717 20.842630 -48.100358 
-0.414634 0.503886 1.003964 63.704104 2.787292 92.642247 12.809442 7.149875 -9.288382 -3.520242 -2.084206 9.530252 -1.541486 4.421837 -5.686328 0.000000 -0.000000 0.000000 -0.613906 -1.146109 -17.919431 1.117116 1.502491 14.969210 4.636123 -6.780567 -6.748250 0.000000 -0.000000 0.000000 -1.950369 -2.746275 27.494105 -6.806350 -5.374542 3.577107 -3.605904 -3.654184 -0.251334 -18.362425 3.744775 9.789893 2.416110 15.476552 12.606429 -21.952836 -27.138528 5.277609 -49.339106 -31.335600 13.212752 -5.127707 -34.889244 14.844816 15.907220 -12.156074 -5.507313 -2.989311 16.354923 -3.148709 22.334408 -0.847699 13.348162 177.482864 68.267087 -168.158969 8.258457 21.110558 -47.336947 
